{
  "accessors": [
    {
      "bufferView": 1,
      "componentType": 5126,
      "count": 65532,
      "max": [
        5.148250579833984,
        14.515146255493164,
        0.168829083442688
      ],
      "min": [
        -5.148250579833984,
        -0.03513383865356445,
        -7.643825531005859
      ],
      "type": "VEC3"
    },
    {
      "bufferView": 1,
      "byteOffset": 786384,
      "componentType": 5126,
      "count": 65532,
      "type": "VEC3"
    },
    {
      "bufferView": 0,
      "componentType": 5125,
      "count": 301461,
      "type": "SCALAR"
    },
    {
      "bufferView": 1,
      "byteOffset": 1572768,
      "componentType": 5126,
      "count": 65532,
      "max": [
        6.2283220291137695,
        14.197590827941895,
        1.8264069557189941
      ],
      "min": [
        -6.461174964904785,
        -0.7383275032043457,
        -7.321383476257324
      ],
      "type": "VEC3"
    },
    {
      "bufferView": 1,
      "byteOffset": 2359152,
      "componentType": 5126,
      "count": 65532,
      "type": "VEC3"
    },
    {
      "bufferView": 0,
      "byteOffset": 1205844,
      "componentType": 5125,
      "count": 291150,
      "type": "SCALAR"
    },
    {
      "bufferView": 1,
      "byteOffset": 3145536,
      "componentType": 5126,
      "count": 65532,
      "max": [
        4.633743762969971,
        13.519665718078613,
        1.3519715070724487
      ],
      "min": [
        -6.485503196716309,
        -0.6723100543022156,
        -7.349658012390137
      ],
      "type": "VEC3"
    },
    {
      "bufferView": 1,
      "byteOffset": 3931920,
      "componentType": 5126,
      "count": 65532,
      "type": "VEC3"
    },
    {
      "bufferView": 0,
      "byteOffset": 2370444,
      "componentType": 5125,
      "count": 305046,
      "type": "SCALAR"
    },
    {
      "bufferView": 1,
      "byteOffset": 4718304,
      "componentType": 5126,
      "count": 65532,
      "max": [
        6.2355170249938965,
        13.359222412109375,
        2.1721487045288086
      ],
      "min": [
        -6.0319061279296875,
        -1.4165600538253784,
        -7.344146251678467
      ],
      "type": "VEC3"
    },
    {
      "bufferView": 1,
      "byteOffset": 5504688,
      "componentType": 5126,
      "count": 65532,
      "type": "VEC3"
    },
    {
      "bufferView": 0,
      "byteOffset": 3590628,
      "componentType": 5125,
      "count": 313869,
      "type": "SCALAR"
    },
    {
      "bufferView": 1,
      "byteOffset": 6291072,
      "componentType": 5126,
      "count": 65532,
      "max": [
        6.302515029907227,
        13.562777519226074,
        2.2496285438537598
      ],
      "min": [
        -4.977841377258301,
        -0.5652770400047302,
        -7.326656818389893
      ],
      "type": "VEC3"
    },
    {
      "bufferView": 1,
      "byteOffset": 7077456,
      "componentType": 5126,
      "count": 65532,
      "type": "VEC3"
    },
    {
      "bufferView": 0,
      "byteOffset": 4846104,
      "componentType": 5125,
      "count": 314586,
      "type": "SCALAR"
    },
    {
      "bufferView": 1,
      "byteOffset": 7863840,
      "componentType": 5126,
      "count": 65532,
      "max": [
        5.836703777313232,
        13.504290580749512,
        2.048738956451416
      ],
      "min": [
        -4.797891616821289,
        -1.2524728775024414,
        -7.355233192443848
      ],
      "type": "VEC3"
    },
    {
      "bufferView": 1,
      "byteOffset": 8650224,
      "componentType": 5126,
      "count": 65532,
      "type": "VEC3"
    },
    {
      "bufferView": 0,
      "byteOffset": 6104448,
      "componentType": 5125,
      "count": 310974,
      "type": "SCALAR"
    },
    {
      "bufferView": 1,
      "byteOffset": 9436608,
      "componentType": 5126,
      "count": 65532,
      "max": [
        5.535515785217285,
        14.849977493286133,
        1.9870702028274536
      ],
      "min": [
        -6.089144706726074,
        -1.2601420879364014,
        -7.320075511932373
      ],
      "type": "VEC3"
    },
    {
      "bufferView": 1,
      "byteOffset": 10222992,
      "componentType": 5126,
      "count": 65532,
      "type": "VEC3"
    },
    {
      "bufferView": 0,
      "byteOffset": 7348344,
      "componentType": 5125,
      "count": 318531,
      "type": "SCALAR"
    },
    {
      "bufferView": 1,
      "byteOffset": 11009376,
      "componentType": 5126,
      "count": 65532,
      "max": [
        6.507421493530273,
        14.110372543334961,
        2.2210965156555176
      ],
      "min": [
        -5.767159461975098,
        -0.4267587661743164,
        -7.324368000030518
      ],
      "type": "VEC3"
    },
    {
      "bufferView": 1,
      "byteOffset": 11795760,
      "componentType": 5126,
      "count": 65532,
      "type": "VEC3"
    },
    {
      "bufferView": 0,
      "byteOffset": 8622468,
      "componentType": 5125,
      "count": 310332,
      "type": "SCALAR"
    },
    {
      "bufferView": 1,
      "byteOffset": 12582144,
      "componentType": 5126,
      "count": 65532,
      "max": [
        6.3622941970825195,
        13.723424911499023,
        1.9648667573928833
      ],
      "min": [
        -6.189737796783447,
        -1.4349513053894043,
        -7.357176303863525
      ],
      "type": "VEC3"
    },
    {
      "bufferView": 1,
      "byteOffset": 13368528,
      "componentType": 5126,
      "count": 65532,
      "type": "VEC3"
    },
    {
      "bufferView": 0,
      "byteOffset": 9863796,
      "componentType": 5125,
      "count": 315270,
      "type": "SCALAR"
    },
    {
      "bufferView": 1,
      "byteOffset": 14154912,
      "componentType": 5126,
      "count": 65532,
      "max": [
        6.316492557525635,
        13.83425235748291,
        2.21783709526062
      ],
      "min": [
        -6.440286159515381,
        -0.5935693979263306,
        -7.3235321044921875
      ],
      "type": "VEC3"
    },
    {
      "bufferView": 1,
      "byteOffset": 14941296,
      "componentType": 5126,
      "count": 65532,
      "type": "VEC3"
    },
    {
      "bufferView": 0,
      "byteOffset": 11124876,
      "componentType": 5125,
      "count": 317355,
      "type": "SCALAR"
    },
    {
      "bufferView": 1,
      "byteOffset": 15727680,
      "componentType": 5126,
      "count": 65532,
      "max": [
        6.461420059204102,
        14.642851829528809,
        2.106570243835449
      ],
      "min": [
        -6.47307825088501,
        -0.9715439081192017,
        -7.335963249206543
      ],
      "type": "VEC3"
    },
    {
      "bufferView": 1,
      "byteOffset": 16514064,
      "componentType": 5126,
      "count": 65532,
      "type": "VEC3"
    },
    {
      "bufferView": 0,
      "byteOffset": 12394296,
      "componentType": 5125,
      "count": 317835,
      "type": "SCALAR"
    },
    {
      "bufferView": 1,
      "byteOffset": 17300448,
      "componentType": 5126,
      "count": 65532,
      "max": [
        6.031567096710205,
        14.450216293334961,
        2.218296766281128
      ],
      "min": [
        -6.2567219734191895,
        -1.1180212497711182,
        -7.3531084060668945
      ],
      "type": "VEC3"
    },
    {
      "bufferView": 1,
      "byteOffset": 18086832,
      "componentType": 5126,
      "count": 65532,
      "type": "VEC3"
    },
    {
      "bufferView": 0,
      "byteOffset": 13665636,
      "componentType": 5125,
      "count": 319656,
      "type": "SCALAR"
    },
    {
      "bufferView": 1,
      "byteOffset": 18873216,
      "componentType": 5126,
      "count": 65532,
      "max": [
        6.185717582702637,
        14.506333351135254,
        2.246474027633667
      ],
      "min": [
        -6.281321048736572,
        -1.0606029033660889,
        -7.341106414794922
      ],
      "type": "VEC3"
    },
    {
      "bufferView": 1,
      "byteOffset": 19659600,
      "componentType": 5126,
      "count": 65532,
      "type": "VEC3"
    },
    {
      "bufferView": 0,
      "byteOffset": 14944260,
      "componentType": 5125,
      "count": 315165,
      "type": "SCALAR"
    },
    {
      "bufferView": 1,
      "byteOffset": 20445984,
      "componentType": 5126,
      "count": 65532,
      "max": [
        6.400767803192139,
        14.791455268859863,
        1.9014250040054321
      ],
      "min": [
        -5.912809371948242,
        -1.0458452701568604,
        -7.332822799682617
      ],
      "type": "VEC3"
    },
    {
      "bufferView": 1,
      "byteOffset": 21232368,
      "componentType": 5126,
      "count": 65532,
      "type": "VEC3"
    },
    {
      "bufferView": 0,
      "byteOffset": 16204920,
      "componentType": 5125,
      "count": 315213,
      "type": "SCALAR"
    },
    {
      "bufferView": 1,
      "byteOffset": 22018752,
      "componentType": 5126,
      "count": 65532,
      "max": [
        6.478052139282227,
        14.734718322753906,
        2.2467105388641357
      ],
      "min": [
        -6.50735330581665,
        -1.1769943237304688,
        -7.349193096160889
      ],
      "type": "VEC3"
    },
    {
      "bufferView": 1,
      "byteOffset": 22805136,
      "componentType": 5126,
      "count": 65532,
      "type": "VEC3"
    },
    {
      "bufferView": 0,
      "byteOffset": 17465772,
      "componentType": 5125,
      "count": 312195,
      "type": "SCALAR"
    },
    {
      "bufferView": 1,
      "byteOffset": 23591520,
      "componentType": 5126,
      "count": 65532,
      "max": [
        6.5036540031433105,
        14.15660572052002,
        2.063325881958008
      ],
      "min": [
        -6.408199310302734,
        -1.3538174629211426,
        -7.356564521789551
      ],
      "type": "VEC3"
    },
    {
      "bufferView": 1,
      "byteOffset": 24377904,
      "componentType": 5126,
      "count": 65532,
      "type": "VEC3"
    },
    {
      "bufferView": 0,
      "byteOffset": 18714552,
      "componentType": 5125,
      "count": 309921,
      "type": "SCALAR"
    },
    {
      "bufferView": 1,
      "byteOffset": 25164288,
      "componentType": 5126,
      "count": 65532,
      "max": [
        6.428985118865967,
        14.769655227661133,
        2.243260622024536
      ],
      "min": [
        -6.4155378341674805,
        -1.395849347114563,
        -7.3517374992370605
      ],
      "type": "VEC3"
    },
    {
      "bufferView": 1,
      "byteOffset": 25950672,
      "componentType": 5126,
      "count": 65532,
      "type": "VEC3"
    },
    {
      "bufferView": 0,
      "byteOffset": 19954236,
      "componentType": 5125,
      "count": 299358,
      "type": "SCALAR"
    },
    {
      "bufferView": 1,
      "byteOffset": 26737056,
      "componentType": 5126,
      "count": 65532,
      "max": [
        6.4387359619140625,
        14.848442077636719,
        2.2497735023498535
      ],
      "min": [
        -6.4420928955078125,
        -1.4253867864608765,
        -7.33834981918335
      ],
      "type": "VEC3"
    },
    {
      "bufferView": 1,
      "byteOffset": 27523440,
      "componentType": 5126,
      "count": 65532,
      "type": "VEC3"
    },
    {
      "bufferView": 0,
      "byteOffset": 21151668,
      "componentType": 5125,
      "count": 284169,
      "type": "SCALAR"
    },
    {
      "bufferView": 1,
      "byteOffset": 28309824,
      "componentType": 5126,
      "count": 65532,
      "max": [
        6.454374313354492,
        14.845571517944336,
        2.220327854156494
      ],
      "min": [
        -6.503627777099609,
        -1.392897605895996,
        -7.333186626434326
      ],
      "type": "VEC3"
    },
    {
      "bufferView": 1,
      "byteOffset": 29096208,
      "componentType": 5126,
      "count": 65532,
      "type": "VEC3"
    },
    {
      "bufferView": 0,
      "byteOffset": 22288344,
      "componentType": 5125,
      "count": 250062,
      "type": "SCALAR"
    },
    {
      "bufferView": 1,
      "byteOffset": 29882592,
      "componentType": 5126,
      "count": 65532,
      "max": [
        6.47564697265625,
        14.81430721282959,
        2.187502861022949
      ],
      "min": [
        -6.493213176727295,
        -1.4361114501953125,
        -7.349658012390137
      ],
      "type": "VEC3"
    },
    {
      "bufferView": 1,
      "byteOffset": 30668976,
      "componentType": 5126,
      "count": 65532,
      "type": "VEC3"
    },
    {
      "bufferView": 0,
      "byteOffset": 23288592,
      "componentType": 5125,
      "count": 198123,
      "type": "SCALAR"
    },
    {
      "bufferView": 1,
      "byteOffset": 31455360,
      "componentType": 5126,
      "count": 65532,
      "max": [
        6.4713616371154785,
        14.849977493286133,
        2.233506917953491
      ],
      "min": [
        -6.473197937011719,
        -1.4275927543640137,
        -7.357176303863525
      ],
      "type": "VEC3"
    },
    {
      "bufferView": 1,
      "byteOffset": 32241744,
      "componentType": 5126,
      "count": 65532,
      "type": "VEC3"
    },
    {
      "bufferView": 0,
      "byteOffset": 24081084,
      "componentType": 5125,
      "count": 135906,
      "type": "SCALAR"
    },
    {
      "bufferView": 1,
      "byteOffset": 33028128,
      "componentType": 5126,
      "count": 31847,
      "max": [
        6.494183540344238,
        14.827503204345703,
        2.197864055633545
      ],
      "min": [
        -6.437138080596924,
        -1.4260225296020508,
        -7.35408878326416
      ],
      "type": "VEC3"
    },
    {
      "bufferView": 1,
      "byteOffset": 33410292,
      "componentType": 5126,
      "count": 31847,
      "type": "VEC3"
    },
    {
      "bufferView": 0,
      "byteOffset": 24624708,
      "componentType": 5125,
      "count": 43710,
      "type": "SCALAR"
    }
  ],
  "asset": {
    "generator": "fab-model-conversion",
    "version": "2.0"
  },
  "bufferViews": [
    {
      "buffer": 0,
      "byteLength": 24799548,
      "target": 34963
    },
    {
      "buffer": 0,
      "byteLength": 33792456,
      "byteOffset": 24799548,
      "byteStride": 12,
      "target": 34962
    }
  ],
  "buffers": [
    {
      "byteLength": 58592004,
      "uri": "scene.bin"
    }
  ],
  "materials": [
    {
      "doubleSided": true,
      "name": "material_0",
      "pbrMetallicRoughness": {
        "baseColorFactor": [
          0.9117889721365602,
          0.9117889721365602,
          0.9117889721365602,
          1.0
        ],
        "metallicFactor": 0.0,
        "roughnessFactor": 0.7252506551386584
      }
    }
  ],
  "meshes": [
    {
      "name": "Object_0",
      "primitives": [
        {
          "attributes": {
            "NORMAL": 1,
            "POSITION": 0
          },
          "indices": 2,
          "material": 0,
          "mode": 4
        }
      ]
    },
    {
      "name": "Object_1",
      "primitives": [
        {
          "attributes": {
            "NORMAL": 4,
            "POSITION": 3
          },
          "indices": 5,
          "material": 0,
          "mode": 4
        }
      ]
    },
    {
      "name": "Object_2",
      "primitives": [
        {
          "attributes": {
            "NORMAL": 7,
            "POSITION": 6
          },
          "indices": 8,
          "material": 0,
          "mode": 4
        }
      ]
    },
    {
      "name": "Object_3",
      "primitives": [
        {
          "attributes": {
            "NORMAL": 10,
            "POSITION": 9
          },
          "indices": 11,
          "material": 0,
          "mode": 4
        }
      ]
    },
    {
      "name": "Object_4",
      "primitives": [
        {
          "attributes": {
            "NORMAL": 13,
            "POSITION": 12
          },
          "indices": 14,
          "material": 0,
          "mode": 4
        }
      ]
    },
    {
      "name": "Object_5",
      "primitives": [
        {
          "attributes": {
            "NORMAL": 16,
            "POSITION": 15
          },
          "indices": 17,
          "material": 0,
          "mode": 4
        }
      ]
    },
    {
      "name": "Object_6",
      "primitives": [
        {
          "attributes": {
            "NORMAL": 19,
            "POSITION": 18
          },
          "indices": 20,
          "material": 0,
          "mode": 4
        }
      ]
    },
    {
      "name": "Object_7",
      "primitives": [
        {
          "attributes": {
            "NORMAL": 22,
            "POSITION": 21
          },
          "indices": 23,
          "material": 0,
          "mode": 4
        }
      ]
    },
    {
      "name": "Object_8",
      "primitives": [
        {
          "attributes": {
            "NORMAL": 25,
            "POSITION": 24
          },
          "indices": 26,
          "material": 0,
          "mode": 4
        }
      ]
    },
    {
      "name": "Object_9",
      "primitives": [
        {
          "attributes": {
            "NORMAL": 28,
            "POSITION": 27
          },
          "indices": 29,
          "material": 0,
          "mode": 4
        }
      ]
    },
    {
      "name": "Object_10",
      "primitives": [
        {
          "attributes": {
            "NORMAL": 31,
            "POSITION": 30
          },
          "indices": 32,
          "material": 0,
          "mode": 4
        }
      ]
    },
    {
      "name": "Object_11",
      "primitives": [
        {
          "attributes": {
            "NORMAL": 34,
            "POSITION": 33
          },
          "indices": 35,
          "material": 0,
          "mode": 4
        }
      ]
    },
    {
      "name": "Object_12",
      "primitives": [
        {
          "attributes": {
            "NORMAL": 37,
            "POSITION": 36
          },
          "indices": 38,
          "material": 0,
          "mode": 4
        }
      ]
    },
    {
      "name": "Object_13",
      "primitives": [
        {
          "attributes": {
            "NORMAL": 40,
            "POSITION": 39
          },
          "indices": 41,
          "material": 0,
          "mode": 4
        }
      ]
    },
    {
      "name": "Object_14",
      "primitives": [
        {
          "attributes": {
            "NORMAL": 43,
            "POSITION": 42
          },
          "indices": 44,
          "material": 0,
          "mode": 4
        }
      ]
    },
    {
      "name": "Object_15",
      "primitives": [
        {
          "attributes": {
            "NORMAL": 46,
            "POSITION": 45
          },
          "indices": 47,
          "material": 0,
          "mode": 4
        }
      ]
    },
    {
      "name": "Object_16",
      "primitives": [
        {
          "attributes": {
            "NORMAL": 49,
            "POSITION": 48
          },
          "indices": 50,
          "material": 0,
          "mode": 4
        }
      ]
    },
    {
      "name": "Object_17",
      "primitives": [
        {
          "attributes": {
            "NORMAL": 52,
            "POSITION": 51
          },
          "indices": 53,
          "material": 0,
          "mode": 4
        }
      ]
    },
    {
      "name": "Object_18",
      "primitives": [
        {
          "attributes": {
            "NORMAL": 55,
            "POSITION": 54
          },
          "indices": 56,
          "material": 0,
          "mode": 4
        }
      ]
    },
    {
      "name": "Object_19",
      "primitives": [
        {
          "attributes": {
            "NORMAL": 58,
            "POSITION": 57
          },
          "indices": 59,
          "material": 0,
          "mode": 4
        }
      ]
    },
    {
      "name": "Object_20",
      "primitives": [
        {
          "attributes": {
            "NORMAL": 61,
            "POSITION": 60
          },
          "indices": 62,
          "material": 0,
          "mode": 4
        }
      ]
    },
    {
      "name": "Object_21",
      "primitives": [
        {
          "attributes": {
            "NORMAL": 64,
            "POSITION": 63
          },
          "indices": 65,
          "material": 0,
          "mode": 4
        }
      ]
    }
  ],
  "nodes": [
    {
      "children": [
        1
      ],
      "matrix": [
        1.0,
        0.0,
        0.0,
        0.0,
        0.0,
        2.220446049250313e-16,
        -1.0,
        0.0,
        0.0,
        1.0,
        2.220446049250313e-16,
        0.0,
        0.0,
        0.0,
        0.0,
        1.0
      ],
      "name": "Sketchfab_model"
    },
    {
      "children": [
        2,
        3,
        4,
        5,
        6,
        7,
        8,
        9,
        10,
        11,
        12,
        13,
        14,
        15,
        16,
        17,
        18,
        19,
        20,
        21,
        22,
        23
      ],
      "name": "Dragon Decimated.obj.cleaner.materialmerger.gles"
    },
    {
      "mesh": 0,
      "name": "Object_2"
    },
    {
      "mesh": 1,
      "name": "Object_3"
    },
    {
      "mesh": 2,
      "name": "Object_4"
    },
    {
      "mesh": 3,
      "name": "Object_5"
    },
    {
      "mesh": 4,
      "name": "Object_6"
    },
    {
      "mesh": 5,
      "name": "Object_7"
    },
    {
      "mesh": 6,
      "name": "Object_8"
    },
    {
      "mesh": 7,
      "name": "Object_9"
    },
    {
      "mesh": 8,
      "name": "Object_10"
    },
    {
      "mesh": 9,
      "name": "Object_11"
    },
    {
      "mesh": 10,
      "name": "Object_12"
    },
    {
      "mesh": 11,
      "name": "Object_13"
    },
    {
      "mesh": 12,
      "name": "Object_14"
    },
    {
      "mesh": 13,
      "name": "Object_15"
    },
    {
      "mesh": 14,
      "name": "Object_16"
    },
    {
      "mesh": 15,
      "name": "Object_17"
    },
    {
      "mesh": 16,
      "name": "Object_18"
    },
    {
      "mesh": 17,
      "name": "Object_19"
    },
    {
      "mesh": 18,
      "name": "Object_20"
    },
    {
      "mesh": 19,
      "name": "Object_21"
    },
    {
      "mesh": 20,
      "name": "Object_22"
    },
    {
      "mesh": 21,
      "name": "Object_23"
    }
  ],
  "scene": 0,
  "scenes": [
    {
      "name": "Sketchfab_Scene",
      "nodes": [
        0
      ]
    }
  ]
}
